<?xml version="1.0" encoding="utf-8"?>
<!-- Generator: Adobe Illustrator 24.0.3, SVG Export Plug-In . SVG Version: 6.00 Build 0)  -->
<svg version="1.1" id="Layer_1" xmlns="http://www.w3.org/2000/svg" xmlns:xlink="http://www.w3.org/1999/xlink" x="0px" y="0px"
	 viewBox="0 0 100 100" style="enable-background:new 0 0 100 100;" xml:space="preserve">
<style type="text/css">
	.st0{fill-rule:evenodd;clip-rule:evenodd;}
</style>
<path class="st0" d="M95.7,55.5h-7.3c-2,0-3.7-1.6-3.7-3.7s1.6-3.7,3.7-3.7h7.3c2,0,3.7,1.6,3.7,3.7C99.3,53.8,97.7,55.5,95.7,55.5z
	 M81.3,31.2c-1.4,1.4-3.7,1.4-5.2,0c-1.4-1.4-1.4-3.7,0-5.2l5.2-5.2c1.4-1.4,3.7-1.4,5.2,0c1.4,1.4,1.4,3.7,0,5.2L81.3,31.2z
	 M77.1,55.5H2.8C3.4,54.2,4,53,4.6,51.8h50.5c0.1,0.1,0.2,0.2,0.2,0.4c1.2-0.2,2.4-0.4,3.7-0.4c3.9,0,7.5,1,10.7,2.8l0,0
	c0.2-0.9,0.3-1.8,0.3-2.8c0-8.1-6.5-14.6-14.6-14.6c-3.7,0-7.1,1.4-9.6,3.7H15.8c4.2-2.3,9-3.7,14.1-3.7c2.9,0,5.6,0.4,8.3,1.2
	c4-5.2,10.3-8.5,17.3-8.5c12.1,0,21.9,9.8,21.9,21.9C77.4,53.1,77.3,54.3,77.1,55.5z M55.5,22.6c-2,0-3.7-1.6-3.7-3.7v-7.3
	c0-2,1.6-3.7,3.7-3.7c2,0,3.7,1.6,3.7,3.7V19C59.1,21,57.5,22.6,55.5,22.6z M29.7,31.2L24.5,26c-1.4-1.4-1.4-3.7,0-5.2
	c1.4-1.4,3.7-1.4,5.2,0l5.2,5.2c1.4,1.4,1.4,3.7,0,5.2C33.4,32.6,31.1,32.6,29.7,31.2z M10.6,44.5h38.5c1.3,1.1,2.4,2.3,3.5,3.7H7.1
	C8.2,46.9,9.4,45.6,10.6,44.5z M80.7,70.1H0.9c-0.1-1.2-0.3-2.4-0.3-3.7h79.1C80.2,67.6,80.5,68.8,80.7,70.1z M10.6,88.4h64.8
	c-1.2,1.4-2.6,2.6-4.2,3.6H15.8C13.9,91,12.2,89.7,10.6,88.4z M4.6,81h75.1c-0.4,1.3-1,2.5-1.7,3.7h-71C6.2,83.5,5.4,82.3,4.6,81z
	 M0.9,62.8c0.2-1.2,0.4-2.5,0.7-3.6h74.4c-0.1,0.2-0.1,0.4-0.2,0.5l0,0c0.8,1,1.5,2,2.2,3.1C78.1,62.8,0.9,62.8,0.9,62.8z M1.7,73.7
	H81c0,1.2-0.1,2.5-0.3,3.7H2.8C2.4,76.2,2,75,1.7,73.7z"/>
</svg>
