<?xml version="1.0" encoding="utf-8"?>
<!-- Generator: Adobe Illustrator 24.0.3, SVG Export Plug-In . SVG Version: 6.00 Build 0)  -->
<svg version="1.1" id="Layer_1" xmlns="http://www.w3.org/2000/svg" xmlns:xlink="http://www.w3.org/1999/xlink" x="0px" y="0px"
	 viewBox="0 0 100 100" style="enable-background:new 0 0 100 100;" xml:space="preserve">
<style type="text/css">
	.st0{fill-rule:evenodd;clip-rule:evenodd;}
</style>
<path class="st0" d="M95.3,53.7H88c-2,0-3.7-1.6-3.7-3.7c0-2,1.6-3.7,3.7-3.7h7.3c2,0,3.7,1.6,3.7,3.7C99,52,97.4,53.7,95.3,53.7z
	 M80.9,29.3c-1.4,1.4-3.8,1.4-5.2,0c-1.4-1.4-1.4-3.8,0-5.2l5.2-5.2c1.4-1.4,3.8-1.4,5.2,0c1.4,1.4,1.4,3.8,0,5.2L80.9,29.3z
	 M75.5,57.9L75.5,57.9c3.2,3.8,5.1,8.7,5.1,14.1c0,12.1-9.8,22-22,22c-5.1,0-23.5,0-29.3,0C13.1,94,0,80.9,0,64.7
	s13.1-29.3,29.3-29.3c2.9,0,5.7,0.4,8.3,1.2c4-5.2,10.3-8.5,17.4-8.5c12.2,0,22,9.9,22,22C77,52.8,76.5,55.4,75.5,57.9z M7.3,64.7
	c0,12.2,9.8,22,22,22c6.6,0,23.8,0,29.3,0c8.1,0,14.7-6.6,14.7-14.7c0-8.1-6.6-14.7-14.7-14.7c-2.9,0-5.7,0.9-7.9,2.4
	c-2.3-9.7-11-17-21.4-17C17.2,42.7,7.3,52.5,7.3,64.7z M55,35.3c-4.1,0-7.7,1.6-10.4,4.3c4.3,2.6,7.9,6.3,10.3,10.7
	c1.2-0.2,2.5-0.4,3.7-0.4c3.9,0,7.6,1,10.7,2.8l0,0c0.2-0.9,0.3-1.8,0.3-2.8C69.7,41.9,63.1,35.3,55,35.3z M55,20.7
	c-2,0-3.7-1.6-3.7-3.7V9.7C51.3,7.6,53,6,55,6c2,0,3.7,1.6,3.7,3.7V17C58.7,19,57,20.7,55,20.7z M29.1,29.3l-5.2-5.2
	c-1.4-1.4-1.4-3.8,0-5.2c1.4-1.4,3.8-1.4,5.2,0l5.2,5.2c1.4,1.4,1.4,3.8,0,5.2C32.8,30.7,30.5,30.7,29.1,29.3z"/>
</svg>
