<?xml version="1.0" encoding="utf-8"?>
<!-- Generator: Adobe Illustrator 24.0.3, SVG Export Plug-In . SVG Version: 6.00 Build 0)  -->
<svg version="1.1" id="Layer_1" xmlns="http://www.w3.org/2000/svg" xmlns:xlink="http://www.w3.org/1999/xlink" x="0px" y="0px"
	 viewBox="0 0 100 100" style="enable-background:new 0 0 100 100;" xml:space="preserve">
<style type="text/css">
	.st0{fill-rule:evenodd;clip-rule:evenodd;}
</style>
<path class="st0" d="M89.1,40.6h-6.3c-1.7,0-3.1-1.4-3.1-3.1s1.4-3.1,3.1-3.1h6.3c1.7,0,3.1,1.4,3.1,3.1S90.8,40.6,89.1,40.6z
	 M76.8,19.8c-1.2,1.2-3.2,1.2-4.4,0c-1.2-1.2-1.2-3.2,0-4.4l4.4-4.4c1.2-1.2,3.2-1.2,4.4,0c1.2,1.2,1.2,3.2,0,4.4L76.8,19.8z
	 M72.2,44.2L72.2,44.2c1.4,1.7,2.5,3.7,3.3,5.8h0c0.3,0.9,0.6,1.9,0.8,2.9c-2.2-1.6-4.8-2.6-7.6-2.8c0,0,0,0-0.1-0.1h0
	c-2.2-3.7-6.2-6.2-10.8-6.2c-2.5,0-4.8,0.8-6.8,2c-1.9-8.3-9.3-14.5-18.2-14.5c-10.4,0-18.7,8.4-18.7,18.8l0,0
	c0,10.4,8.4,18.8,18.7,18.8c4.1,0,12.7,0,19.1,0h15.3c1.7,0,3.1-1.4,3.1-3.1c0-1.7-1.4-3.1-3.1-3.1s-3.1-1.4-3.1-3.1
	s1.4-3.1,3.1-3.1c0.2,0,0.4,0,0.6,0.1c4.9,0.3,8.7,4.3,8.7,9.3c0,4.8-3.6,8.7-8.2,9.3V75h-1.2H54.7c-6.3,0-17.7,0-21.9,0
	c-1.7,0-3.1,1.4-3.1,3.1c0,1.7,1.4,3.1,3.1,3.1h34.4h1.2v0.1c4.6,0.6,8.2,4.5,8.2,9.3c0,5-3.9,9-8.7,9.3c-0.2,0-0.4,0.1-0.6,0.1
	c-1.7,0-3.1-1.4-3.1-3.1c0-1.7,1.4-3.1,3.1-3.1s3.1-1.4,3.1-3.1c0-1.7-1.4-3.1-3.1-3.1H32.8h-1.2v-0.1c-4.6-0.6-8.2-4.5-8.2-9.3
	c0-1.6,0.5-3.2,1.2-4.5C14.9,70.2,7.8,60.9,7.8,50c0-13.8,11.2-25,25-25c2.5,0,4.8,0.4,7.1,1c3.4-4.4,8.8-7.3,14.8-7.3
	c10.4,0,18.7,8.4,18.7,18.7C73.4,39.9,73,42.1,72.2,44.2z M54.7,25c-3.5,0-6.6,1.4-8.8,3.7c3.7,2.2,6.7,5.4,8.8,9.1
	c1-0.2,2.1-0.3,3.2-0.3c3.3,0,6.4,0.9,9.1,2.4l0,0c0.2-0.8,0.2-1.6,0.2-2.4C67.2,30.6,61.6,25,54.7,25z M54.7,12.5
	c-1.7,0-3.1-1.4-3.1-3.1V3.1C51.6,1.4,53,0,54.7,0s3.1,1.4,3.1,3.1v6.2C57.8,11.1,56.4,12.5,54.7,12.5z M32.6,19.8l-4.4-4.4
	c-1.2-1.2-1.2-3.2,0-4.4s3.2-1.2,4.4,0l4.4,4.4c1.2,1.2,1.2,3.2,0,4.4S33.8,21,32.6,19.8z M75,78.1c0-1.7,1.4-3.1,3.1-3.1h4.7
	c1.7,0,3.1-1.4,3.1-3.1c0-1.7-1.4-3.1-3.1-3.1s-3.1-1.4-3.1-3.1c0-1.7,1.4-3.1,3.1-3.1c0.2,0,0.4,0,0.6,0.1c4.9,0.3,8.7,4.3,8.7,9.3
	c0,4.8-3.6,8.7-8.2,9.3v0.1h-1.2h-4.7C76.4,81.2,75,79.9,75,78.1z"/>
</svg>
