<?xml version="1.0" encoding="utf-8"?>
<!-- Generator: Adobe Illustrator 24.0.3, SVG Export Plug-In . SVG Version: 6.00 Build 0)  -->
<svg version="1.1" id="Layer_1" xmlns="http://www.w3.org/2000/svg" xmlns:xlink="http://www.w3.org/1999/xlink" x="0px" y="0px"
	 viewBox="0 0 100 100" style="enable-background:new 0 0 100 100;" xml:space="preserve">
<style type="text/css">
	.st0{fill-rule:evenodd;clip-rule:evenodd;}
</style>
<path class="st0" d="M91.7,43.3H85c-1.8,0-3.3-1.5-3.3-3.3c0-1.8,1.5-3.3,3.3-3.3h6.7c1.8,0,3.3,1.5,3.3,3.3
	C95,41.8,93.5,43.3,91.7,43.3z M78.6,21.1c-1.3,1.3-3.4,1.3-4.7,0c-1.3-1.3-1.3-3.4,0-4.7l4.7-4.7c1.3-1.3,3.4-1.3,4.7,0
	c1.3,1.3,1.3,3.4,0,4.7L78.6,21.1z M73.7,47.2L73.7,47.2c2.9,3.5,4.7,8,4.7,12.8c0,8.7-5.6,16.1-13.3,18.8v-7.3
	c4-2.3,6.7-6.6,6.7-11.5c0-7.4-6-13.3-13.3-13.3c-2.7,0-5.1,0.8-7.2,2.2c-2.1-8.9-10-15.5-19.4-15.5c-11,0-20,9-20,20
	c0,5.9,2.6,11.2,6.7,14.9v8.2C10.4,71.8,5,63.2,5,53.3c0-14.7,11.9-26.7,26.7-26.7c2.6,0,5.2,0.4,7.5,1.1C42.9,23,48.6,20,55,20
	c11,0,20,9,20,20C75,42.5,74.5,44.9,73.7,47.2z M55,26.7c-3.7,0-7,1.5-9.4,3.9c3.9,2.4,7.1,5.8,9.4,9.8c1.1-0.2,2.2-0.3,3.4-0.3
	c3.5,0,6.9,0.9,9.8,2.5l0,0c0.2-0.8,0.3-1.7,0.3-2.5C68.3,32.6,62.4,26.7,55,26.7z M55,13.3c-1.8,0-3.3-1.5-3.3-3.3V3.3
	C51.7,1.5,53.2,0,55,0c1.8,0,3.3,1.5,3.3,3.3V10C58.3,11.8,56.8,13.3,55,13.3z M31.4,21.1l-4.7-4.7c-1.3-1.3-1.3-3.4,0-4.7
	c1.3-1.3,3.4-1.3,4.7,0l4.7,4.7c1.3,1.3,1.3,3.4,0,4.7C34.8,22.4,32.7,22.4,31.4,21.1z M28.3,60c1.8,0,3.3,1.5,3.3,3.3V90
	c0,1.8-1.5,3.3-3.3,3.3c-1.8,0-3.3-1.5-3.3-3.3V63.3C25,61.5,26.5,60,28.3,60z M41.7,66.7c1.8,0,3.3,1.5,3.3,3.3v26.7
	c0,1.8-1.5,3.3-3.3,3.3c-1.8,0-3.3-1.5-3.3-3.3V70C38.3,68.2,39.8,66.7,41.7,66.7z M55,60c1.8,0,3.3,1.5,3.3,3.3V90
	c0,1.8-1.5,3.3-3.3,3.3c-1.8,0-3.3-1.5-3.3-3.3V63.3C51.7,61.5,53.2,60,55,60z"/>
</svg>
