<?xml version="1.0" encoding="utf-8"?>
<!-- Generator: Adobe Illustrator 24.0.3, SVG Export Plug-In . SVG Version: 6.00 Build 0)  -->
<svg version="1.1" id="Layer_1" xmlns="http://www.w3.org/2000/svg" xmlns:xlink="http://www.w3.org/1999/xlink" x="0px" y="0px"
	 viewBox="0 0 100 100" style="enable-background:new 0 0 100 100;" xml:space="preserve">
<style type="text/css">
	.st0{fill-rule:evenodd;clip-rule:evenodd;}
</style>
<path class="st0" d="M2.7,64.5c-0.6-1.5-1.1-3-1.5-4.5H100c0,1.6-0.2,3.1-0.4,4.5H2.7z M18.8,19.1c5.2-2.9,11.2-4.5,17.6-4.5
	c6.4,0,12.4,1.7,17.6,4.5H18.8z M0.3,46.4c0.2-1.6,0.5-3.1,0.9-4.5H93c1.3,1.4,2.4,2.9,3.3,4.5H0.3z M2.7,37.3
	c0.6-1.6,1.4-3.1,2.2-4.5h62.9c0.1,0.2,0.2,0.3,0.3,0.5c1.5-0.3,3-0.5,4.6-0.5c5.6,0,10.7,1.7,15.1,4.5H2.7z M8,28.2
	c1.3-1.6,2.8-3.2,4.4-4.5h48c1.6,1.4,3,2.9,4.3,4.5H8z M99.6,55.5H0.3C0.1,54,0,52.5,0,50.9h98.4C98.9,52.4,99.3,53.9,99.6,55.5z
	 M98.4,69.1c-0.6,1.6-1.3,3.1-2.1,4.5H8c-1.1-1.4-2.2-3-3.1-4.5H98.4z M12.4,78.2H93c-1.5,1.7-3.3,3.3-5.2,4.5h-69
	C16.5,81.5,14.3,79.9,12.4,78.2z"/>
</svg>
