<?xml version="1.0" encoding="utf-8"?>
<!-- Generator: Adobe Illustrator 24.0.3, SVG Export Plug-In . SVG Version: 6.00 Build 0)  -->
<svg version="1.1" id="Layer_1" xmlns="http://www.w3.org/2000/svg" xmlns:xlink="http://www.w3.org/1999/xlink" x="0px" y="0px"
	 viewBox="0 0 100 100" style="enable-background:new 0 0 100 100;" xml:space="preserve">
<style type="text/css">
	.st0{fill-rule:evenodd;clip-rule:evenodd;}
</style>
<path class="st0" d="M96.4,50h-3.6v7.1c0,5.9-4.8,10.7-10.7,10.7H67.9c-5.9,0-10.7-4.8-10.7-10.7L53.6,43c-1.2-0.1-2.5-0.1-3.7-0.1
	c-1.2,0-2.4,0.1-3.5,0.2l-3.5,14.1c0,5.9-4.8,10.7-10.7,10.7H17.9c-5.9,0-10.7-4.8-10.7-10.7V50H3.6c-2,0-3.6-1.6-3.6-3.6v-3.6
	c0-2,1.6-3.6,3.6-3.6h4.2c1.5-4.2,5.4-7.1,10.1-7.1h17.9c3.4,0,6.4,1.6,8.3,4c1.9-0.3,3.8-0.5,5.9-0.5c2.1,0,4.1,0.2,6.1,0.4
	c2-2.4,4.9-4,8.3-4h17.9c4.7,0,8.6,3,10.1,7.1h4.2c2,0,3.6,1.6,3.6,3.6v3.6C100,48.4,98.4,50,96.4,50z M29.8,38.1c-1-1-2.7-1-3.8,0
	L14.6,49.4c-1,1-1,2.7,0,3.8c1,1,2.7,1,3.8,0l11.4-11.4C30.8,40.8,30.8,39.1,29.8,38.1z M79.8,38.1c-1-1-2.7-1-3.8,0L64.6,49.4
	c-1,1-1,2.7,0,3.8c1,1,2.7,1,3.8,0l11.4-11.4C80.8,40.8,80.8,39.1,79.8,38.1z"/>
</svg>
