<?xml version="1.0" encoding="utf-8"?>
<!-- Generator: Adobe Illustrator 24.0.3, SVG Export Plug-In . SVG Version: 6.00 Build 0)  -->
<svg version="1.1" id="Layer_1" xmlns="http://www.w3.org/2000/svg" xmlns:xlink="http://www.w3.org/1999/xlink" x="0px" y="0px"
	 viewBox="0 0 100 100" style="enable-background:new 0 0 100 100;" xml:space="preserve">
<style type="text/css">
	.st0{fill-rule:evenodd;clip-rule:evenodd;}
</style>
<path class="st0" d="M94.8,17.4H5c-2.6,0-4.7-2.1-4.7-4.7C0.2,10,2.4,7.9,5,7.9h89.8c2.6,0,4.7,2.1,4.7,4.7
	C99.5,15.2,97.4,17.4,94.8,17.4z M9.7,26.8h70.9c2.6,0,4.7,2.1,4.7,4.7s-2.1,4.7-4.7,4.7H9.7c-2.6,0-4.7-2.1-4.7-4.7
	C5,28.9,7.1,26.8,9.7,26.8z M38.1,45.7h52c2.6,0,4.7,2.1,4.7,4.7c0,2.6-2.1,4.7-4.7,4.7h-52c-2.6,0-4.7-2.1-4.7-4.7
	C33.3,47.8,35.4,45.7,38.1,45.7z M42.8,83.5H57c2.6,0,4.7,2.1,4.7,4.7c0,2.6-2.1,4.7-4.7,4.7H42.8c-2.6,0-4.7-2.1-4.7-4.7
	C38.1,85.7,40.2,83.5,42.8,83.5z M45.1,69.4c0-2.6,2.1-4.7,4.7-4.7H83c2.6,0,4.7,2.1,4.7,4.7c0,2.6-2.1,4.7-4.7,4.7H49.9
	C47.3,74.1,45.1,72,45.1,69.4z"/>
</svg>
