<svg width="0" height="0" style="position:absolute"><symbol id="icon-Cloud-Fog-Alt" viewBox="0 0 100 100" xml:space="preserve" xmlns="http://www.w3.org/2000/svg"><style>.ast0{fill-rule:evenodd;clip-rule:evenodd}</style><path class="ast0" d="M2.7 64.5c-.6-1.5-1.1-3-1.5-4.5H100c0 1.6-.2 3.1-.4 4.5H2.7zm16.1-45.4c5.2-2.9 11.2-4.5 17.6-4.5 6.4 0 12.4 1.7 17.6 4.5H18.8zM.3 46.4c.2-1.6.5-3.1.9-4.5H93c1.3 1.4 2.4 2.9 3.3 4.5H.3zm2.4-9.1c.6-1.6 1.4-3.1 2.2-4.5h62.9c.1.2.2.3.3.5 1.5-.3 3-.5 4.6-.5 5.6 0 10.7 1.7 15.1 4.5H2.7zM8 28.2c1.3-1.6 2.8-3.2 4.4-4.5h48c1.6 1.4 3 2.9 4.3 4.5H8zm91.6 27.3H.3c-.2-1.5-.3-3-.3-4.6h98.4c.5 1.5.9 3 1.2 4.6zm-1.2 13.6c-.6 1.6-1.3 3.1-2.1 4.5H8c-1.1-1.4-2.2-3-3.1-4.5h93.5zm-86 9.1H93c-1.5 1.7-3.3 3.3-5.2 4.5h-69c-2.3-1.2-4.5-2.8-6.4-4.5z"/></symbol><symbol id="icon-Cloud-Fog-Sun-Alt" viewBox="0 0 100 100" xml:space="preserve" xmlns="http://www.w3.org/2000/svg"><style>.bst0{fill-rule:evenodd;clip-rule:evenodd}</style><path class="bst0" d="M95.7 55.5h-7.3c-2 0-3.7-1.6-3.7-3.7s1.6-3.7 3.7-3.7h7.3c2 0 3.7 1.6 3.7 3.7-.1 2-1.7 3.7-3.7 3.7zM81.3 31.2c-1.4 1.4-3.7 1.4-5.2 0-1.4-1.4-1.4-3.7 0-5.2l5.2-5.2c1.4-1.4 3.7-1.4 5.2 0 1.4 1.4 1.4 3.7 0 5.2l-5.2 5.2zm-4.2 24.3H2.8c.6-1.3 1.2-2.5 1.8-3.7h50.5c.1.1.2.2.2.4 1.2-.2 2.4-.4 3.7-.4 3.9 0 7.5 1 10.7 2.8.2-.9.3-1.8.3-2.8 0-8.1-6.5-14.6-14.6-14.6-3.7 0-7.1 1.4-9.6 3.7h-30c4.2-2.3 9-3.7 14.1-3.7 2.9 0 5.6.4 8.3 1.2 4-5.2 10.3-8.5 17.3-8.5 12.1 0 21.9 9.8 21.9 21.9 0 1.3-.1 2.5-.3 3.7zM55.5 22.6c-2 0-3.7-1.6-3.7-3.7v-7.3c0-2 1.6-3.7 3.7-3.7 2 0 3.7 1.6 3.7 3.7V19c-.1 2-1.7 3.6-3.7 3.6zm-25.8 8.6L24.5 26c-1.4-1.4-1.4-3.7 0-5.2 1.4-1.4 3.7-1.4 5.2 0l5.2 5.2c1.4 1.4 1.4 3.7 0 5.2-1.5 1.4-3.8 1.4-5.2 0zM10.6 44.5h38.5c1.3 1.1 2.4 2.3 3.5 3.7H7.1c1.1-1.3 2.3-2.6 3.5-3.7zm70.1 25.6H.9c-.1-1.2-.3-2.4-.3-3.7h79.1c.5 1.2.8 2.4 1 3.7zM10.6 88.4h64.8c-1.2 1.4-2.6 2.6-4.2 3.6H15.8c-1.9-1-3.6-2.3-5.2-3.6zm-6-7.4h75.1c-.4 1.3-1 2.5-1.7 3.7H7c-.8-1.2-1.6-2.4-2.4-3.7zM.9 62.8c.2-1.2.4-2.5.7-3.6H76c-.1.2-.1.4-.2.5.8 1 1.5 2 2.2 3.1H.9zm.8 10.9H81c0 1.2-.1 2.5-.3 3.7H2.8c-.4-1.2-.8-2.4-1.1-3.7z"/></symbol><symbol id="icon-Cloud-Lightning" viewBox="0 0 100 100" xml:space="preserve" xmlns="http://www.w3.org/2000/svg"><style>.cst0{fill-rule:evenodd;clip-rule:evenodd}</style><path class="cst0" d="M72.7 72.7h-2.4l8.1-10c7.2-2.4 12.4-9.2 12.4-17.2 0-10-8.1-18.2-18.2-18.2-3.6 0-7 1.1-9.8 2.9C60.1 18.1 49.3 9.1 36.4 9.1 21.3 9.1 9.1 21.3 9.1 36.4c0 12.4 8.3 22.8 19.6 26.1l-3.1 8.6C10.8 66.5 0 52.7 0 36.4 0 16.3 16.3 0 36.4 0 50 0 61.9 7.5 68.1 18.6c1.5-.3 3-.5 4.6-.5 15.1 0 27.3 12.2 27.3 27.3S87.8 72.7 72.7 72.7zM45.5 40.9h22.7L54.5 63.6h15.9L40.9 100l8.2-27.3h-15l11.4-31.8z"/></symbol><symbol id="icon-Cloud-Rain" viewBox="0 0 100 100" xml:space="preserve" xmlns="http://www.w3.org/2000/svg"><style>.dst0{fill-rule:evenodd;clip-rule:evenodd}</style><path class="dst0" d="M81.8 71.1v-10c5.4-3.1 9.1-9 9.1-15.7 0-10-8.1-18.2-18.2-18.2-3.6 0-7 1.1-9.8 2.9-2.8-12-13.6-21-26.5-21-15.1 0-27.3 12.2-27.3 27.3 0 8.1 3.5 15.3 9.1 20.3v11.2C7.3 61.5 0 49.8 0 36.4 0 16.3 16.3 0 36.4 0 50 0 61.9 7.5 68.1 18.6c1.5-.3 3-.5 4.6-.5 15.1 0 27.3 12.2 27.3 27.3 0 11.9-7.6 22-18.2 25.7zm-50-25.6c2.5 0 4.5 2 4.5 4.5v36.4c0 2.5-2 4.5-4.5 4.5s-4.5-2-4.5-4.5V50c0-2.5 2-4.5 4.5-4.5zm18.2 9c2.5 0 4.5 2 4.5 4.5v36.4c0 2.5-2 4.5-4.5 4.5s-4.5-2-4.5-4.5V59.1c0-2.5 2-4.6 4.5-4.6zm18.2-9c2.5 0 4.5 2 4.5 4.5v36.4c0 2.5-2 4.5-4.5 4.5s-4.5-2-4.5-4.5V50c-.1-2.5 2-4.5 4.5-4.5z"/></symbol><symbol id="icon-Cloud-Rain-Sun" viewBox="0 0 100 100" xml:space="preserve" xmlns="http://www.w3.org/2000/svg"><style>.est0{fill-rule:evenodd;clip-rule:evenodd}</style><path class="est0" d="M91.7 43.3H85c-1.8 0-3.3-1.5-3.3-3.3 0-1.8 1.5-3.3 3.3-3.3h6.7c1.8 0 3.3 1.5 3.3 3.3 0 1.8-1.5 3.3-3.3 3.3zM78.6 21.1a3.32 3.32 0 01-4.7 0 3.32 3.32 0 010-4.7l4.7-4.7c1.3-1.3 3.4-1.3 4.7 0 1.3 1.3 1.3 3.4 0 4.7l-4.7 4.7zm-4.9 26.1c2.9 3.5 4.7 8 4.7 12.8 0 8.7-5.6 16.1-13.3 18.8v-7.3c4-2.3 6.7-6.6 6.7-11.5 0-7.4-6-13.3-13.3-13.3-2.7 0-5.1.8-7.2 2.2-2.1-8.9-10-15.5-19.4-15.5-11 0-20 9-20 20 0 5.9 2.6 11.2 6.7 14.9v8.2C10.4 71.8 5 63.2 5 53.3c0-14.7 11.9-26.7 26.7-26.7 2.6 0 5.2.4 7.5 1.1C42.9 23 48.6 20 55 20c11 0 20 9 20 20 0 2.5-.5 4.9-1.3 7.2zM55 26.7c-3.7 0-7 1.5-9.4 3.9 3.9 2.4 7.1 5.8 9.4 9.8 1.1-.2 2.2-.3 3.4-.3 3.5 0 6.9.9 9.8 2.5.2-.8.3-1.7.3-2.5-.2-7.5-6.1-13.4-13.5-13.4zm0-13.4c-1.8 0-3.3-1.5-3.3-3.3V3.3C51.7 1.5 53.2 0 55 0c1.8 0 3.3 1.5 3.3 3.3V10c0 1.8-1.5 3.3-3.3 3.3zm-23.6 7.8l-4.7-4.7a3.32 3.32 0 010-4.7c1.3-1.3 3.4-1.3 4.7 0l4.7 4.7c1.3 1.3 1.3 3.4 0 4.7a3.32 3.32 0 01-4.7 0zM28.3 60c1.8 0 3.3 1.5 3.3 3.3V90c0 1.8-1.5 3.3-3.3 3.3-1.8 0-3.3-1.5-3.3-3.3V63.3c0-1.8 1.5-3.3 3.3-3.3zm13.4 6.7c1.8 0 3.3 1.5 3.3 3.3v26.7c0 1.8-1.5 3.3-3.3 3.3-1.8 0-3.3-1.5-3.3-3.3V70c-.1-1.8 1.4-3.3 3.3-3.3zM55 60c1.8 0 3.3 1.5 3.3 3.3V90c0 1.8-1.5 3.3-3.3 3.3-1.8 0-3.3-1.5-3.3-3.3V63.3c0-1.8 1.5-3.3 3.3-3.3z"/></symbol><symbol id="icon-Cloud-Sun" viewBox="0 0 100 100" xml:space="preserve" xmlns="http://www.w3.org/2000/svg"><style>.fst0{fill-rule:evenodd;clip-rule:evenodd}</style><path class="fst0" d="M95.3 53.7H88c-2 0-3.7-1.6-3.7-3.7 0-2 1.6-3.7 3.7-3.7h7.3c2 0 3.7 1.6 3.7 3.7 0 2-1.6 3.7-3.7 3.7zM80.9 29.3c-1.4 1.4-3.8 1.4-5.2 0-1.4-1.4-1.4-3.8 0-5.2l5.2-5.2c1.4-1.4 3.8-1.4 5.2 0 1.4 1.4 1.4 3.8 0 5.2l-5.2 5.2zm-5.4 28.6c3.2 3.8 5.1 8.7 5.1 14.1 0 12.1-9.8 22-22 22H29.3C13.1 94 0 80.9 0 64.7s13.1-29.3 29.3-29.3c2.9 0 5.7.4 8.3 1.2 4-5.2 10.3-8.5 17.4-8.5 12.2 0 22 9.9 22 22 0 2.7-.5 5.3-1.5 7.8zM7.3 64.7c0 12.2 9.8 22 22 22h29.3c8.1 0 14.7-6.6 14.7-14.7s-6.6-14.7-14.7-14.7c-2.9 0-5.7.9-7.9 2.4-2.3-9.7-11-17-21.4-17-12.1 0-22 9.8-22 22zM55 35.3c-4.1 0-7.7 1.6-10.4 4.3 4.3 2.6 7.9 6.3 10.3 10.7 1.2-.2 2.5-.4 3.7-.4 3.9 0 7.6 1 10.7 2.8.2-.9.3-1.8.3-2.8.1-8-6.5-14.6-14.6-14.6zm0-14.6c-2 0-3.7-1.6-3.7-3.7V9.7C51.3 7.6 53 6 55 6s3.7 1.6 3.7 3.7V17c0 2-1.7 3.7-3.7 3.7zm-25.9 8.6l-5.2-5.2c-1.4-1.4-1.4-3.8 0-5.2 1.4-1.4 3.8-1.4 5.2 0l5.2 5.2c1.4 1.4 1.4 3.8 0 5.2-1.5 1.4-3.8 1.4-5.2 0z"/></symbol><symbol id="icon-Cloud-Wind-Sun" viewBox="0 0 100 100" xml:space="preserve" xmlns="http://www.w3.org/2000/svg"><style>.gst0{fill-rule:evenodd;clip-rule:evenodd}</style><path class="gst0" d="M89.1 40.6h-6.3c-1.7 0-3.1-1.4-3.1-3.1s1.4-3.1 3.1-3.1h6.3c1.7 0 3.1 1.4 3.1 3.1s-1.4 3.1-3.1 3.1zM76.8 19.8c-1.2 1.2-3.2 1.2-4.4 0-1.2-1.2-1.2-3.2 0-4.4l4.4-4.4c1.2-1.2 3.2-1.2 4.4 0 1.2 1.2 1.2 3.2 0 4.4l-4.4 4.4zm-4.6 24.4c1.4 1.7 2.5 3.7 3.3 5.8.3.9.6 1.9.8 2.9-2.2-1.6-4.8-2.6-7.6-2.8l-.1-.1c-2.2-3.7-6.2-6.2-10.8-6.2-2.5 0-4.8.8-6.8 2-1.9-8.3-9.3-14.5-18.2-14.5-10.4 0-18.7 8.4-18.7 18.8s8.4 18.8 18.7 18.8H67.2c1.7 0 3.1-1.4 3.1-3.1 0-1.7-1.4-3.1-3.1-3.1s-3.1-1.4-3.1-3.1 1.4-3.1 3.1-3.1c.2 0 .4 0 .6.1 4.9.3 8.7 4.3 8.7 9.3 0 4.8-3.6 8.7-8.2 9.3V75H32.8c-1.7 0-3.1 1.4-3.1 3.1 0 1.7 1.4 3.1 3.1 3.1h35.6v.1c4.6.6 8.2 4.5 8.2 9.3 0 5-3.9 9-8.7 9.3-.2 0-.4.1-.6.1-1.7 0-3.1-1.4-3.1-3.1 0-1.7 1.4-3.1 3.1-3.1s3.1-1.4 3.1-3.1c0-1.7-1.4-3.1-3.1-3.1H31.6v-.1c-4.6-.6-8.2-4.5-8.2-9.3 0-1.6.5-3.2 1.2-4.5C14.9 70.2 7.8 60.9 7.8 50c0-13.8 11.2-25 25-25 2.5 0 4.8.4 7.1 1 3.4-4.4 8.8-7.3 14.8-7.3 10.4 0 18.7 8.4 18.7 18.7 0 2.5-.4 4.7-1.2 6.8zM54.7 25c-3.5 0-6.6 1.4-8.8 3.7 3.7 2.2 6.7 5.4 8.8 9.1 1-.2 2.1-.3 3.2-.3 3.3 0 6.4.9 9.1 2.4.2-.8.2-1.6.2-2.4 0-6.9-5.6-12.5-12.5-12.5zm0-12.5c-1.7 0-3.1-1.4-3.1-3.1V3.1C51.6 1.4 53 0 54.7 0s3.1 1.4 3.1 3.1v6.2c0 1.8-1.4 3.2-3.1 3.2zm-22.1 7.3l-4.4-4.4c-1.2-1.2-1.2-3.2 0-4.4s3.2-1.2 4.4 0l4.4 4.4c1.2 1.2 1.2 3.2 0 4.4s-3.2 1.2-4.4 0zM75 78.1c0-1.7 1.4-3.1 3.1-3.1h4.7c1.7 0 3.1-1.4 3.1-3.1 0-1.7-1.4-3.1-3.1-3.1s-3.1-1.4-3.1-3.1c0-1.7 1.4-3.1 3.1-3.1.2 0 .4 0 .6.1 4.9.3 8.7 4.3 8.7 9.3 0 4.8-3.6 8.7-8.2 9.3v.1H78c-1.6-.2-3-1.5-3-3.3z"/></symbol><symbol id="icon-Shades" viewBox="0 0 100 100" xml:space="preserve" xmlns="http://www.w3.org/2000/svg"><style>.hst0{fill-rule:evenodd;clip-rule:evenodd}</style><path class="hst0" d="M96.4 50h-3.6v7.1c0 5.9-4.8 10.7-10.7 10.7H67.9c-5.9 0-10.7-4.8-10.7-10.7L53.6 43c-1.2-.1-2.5-.1-3.7-.1-1.2 0-2.4.1-3.5.2l-3.5 14.1c0 5.9-4.8 10.7-10.7 10.7H17.9c-5.9 0-10.7-4.8-10.7-10.7V50H3.6c-2 0-3.6-1.6-3.6-3.6v-3.6c0-2 1.6-3.6 3.6-3.6h4.2c1.5-4.2 5.4-7.1 10.1-7.1h17.9c3.4 0 6.4 1.6 8.3 4 1.9-.3 3.8-.5 5.9-.5 2.1 0 4.1.2 6.1.4 2-2.4 4.9-4 8.3-4h17.9c4.7 0 8.6 3 10.1 7.1h4.2c2 0 3.6 1.6 3.6 3.6v3.6c-.2 2.1-1.8 3.7-3.8 3.7zM29.8 38.1c-1-1-2.7-1-3.8 0L14.6 49.4c-1 1-1 2.7 0 3.8 1 1 2.7 1 3.8 0l11.4-11.4c1-1 1-2.7 0-3.7zm50 0c-1-1-2.7-1-3.8 0L64.6 49.4c-1 1-1 2.7 0 3.8 1 1 2.7 1 3.8 0l11.4-11.4c1-1 1-2.7 0-3.7z"/></symbol><symbol id="icon-Snowflake" viewBox="0 0 100 100" xml:space="preserve" xmlns="http://www.w3.org/2000/svg"><style>.ist0{fill-rule:evenodd;clip-rule:evenodd}</style><path class="ist0" d="M90.3 36.4l-8.2 4.7c.8 2.8 1.2 5.8 1.2 8.9 0 3.1-.5 6.1-1.2 8.9l8.2 4.7c4 2.3 5.4 7.4 3 11.4-2.3 4-7.4 5.4-11.4 3l-8.1-4.7c-4.2 4.3-9.5 7.4-15.4 8.9v9.4c0 4.6-3.7 8.3-8.3 8.3s-8.3-3.7-8.3-8.3v-9.4c-6-1.5-11.3-4.6-15.4-8.9L18.1 78c-4 2.3-9.1.9-11.4-3-2.3-4-.9-9.1 3-11.4l8.2-4.7c-.8-2.8-1.2-5.8-1.2-8.9 0-3.1.5-6.1 1.2-8.9l-8.2-4.7c-4-2.3-5.4-7.4-3-11.4 2.3-4 7.4-5.4 11.4-3l8.1 4.7c4.2-4.3 9.5-7.4 15.4-8.9V8.3C41.7 3.7 45.4 0 50 0s8.3 3.7 8.3 8.3v9.4c6 1.5 11.3 4.6 15.4 8.9l8.1-4.7c4-2.3 9.1-.9 11.4 3 2.4 4.1 1 9.2-2.9 11.5zM50 33.3c-9.2 0-16.7 7.5-16.7 16.7S40.8 66.7 50 66.7 66.7 59.2 66.7 50 59.2 33.3 50 33.3z"/></symbol><symbol id="icon-Sun" viewBox="0 0 100 100" xml:space="preserve" xmlns="http://www.w3.org/2000/svg"><style>.jst0{fill-rule:evenodd;clip-rule:evenodd}</style><path class="jst0" d="M95.8 54.2h-8.3c-2.3 0-4.2-1.9-4.2-4.2s1.9-4.2 4.2-4.2h8.3c2.3 0 4.2 1.9 4.2 4.2s-1.9 4.2-4.2 4.2zM79.5 26.4c-1.6 1.6-4.3 1.6-5.9 0-1.6-1.6-1.6-4.3 0-5.9l5.9-5.9c1.6-1.6 4.3-1.6 5.9 0 1.6 1.6 1.6 4.3 0 5.9l-5.9 5.9zM50 75c-13.8 0-25-11.2-25-25s11.2-25 25-25 25 11.2 25 25-11.2 25-25 25zm0-41.7c-9.2 0-16.7 7.5-16.7 16.7S40.8 66.7 50 66.7 66.7 59.2 66.7 50 59.2 33.3 50 33.3zm0-16.6c-2.3 0-4.2-1.9-4.2-4.2V4.2C45.8 1.9 47.7 0 50 0c2.3 0 4.2 1.9 4.2 4.2v8.3c0 2.3-1.9 4.2-4.2 4.2zm-29.5 9.7l-5.9-5.9c-1.6-1.6-1.6-4.3 0-5.9s4.3-1.6 5.9 0l5.9 5.9c1.6 1.6 1.6 4.3 0 5.9s-4.2 1.7-5.9 0zM16.7 50c0 2.3-1.9 4.2-4.2 4.2H4.2C1.9 54.2 0 52.3 0 50s1.9-4.2 4.2-4.2h8.3c2.3 0 4.2 1.9 4.2 4.2zm3.8 23.6c1.6-1.6 4.3-1.6 5.9 0 1.6 1.6 1.6 4.3 0 5.9l-5.9 5.9c-1.6 1.6-4.3 1.6-5.9 0-1.6-1.6-1.6-4.3 0-5.9l5.9-5.9zM50 83.3c2.3 0 4.2 1.9 4.2 4.2v8.3c0 2.3-1.9 4.2-4.2 4.2-2.3 0-4.2-1.9-4.2-4.2v-8.3c0-2.3 1.9-4.2 4.2-4.2zm29.5-9.7l5.9 5.9c1.6 1.6 1.6 4.3 0 5.9-1.6 1.6-4.3 1.6-5.9 0l-5.9-5.9c-1.6-1.6-1.6-4.3 0-5.9 1.6-1.7 4.2-1.7 5.9 0z"/></symbol><symbol id="icon-Sun-Low" viewBox="0 0 100 100" xml:space="preserve" xmlns="http://www.w3.org/2000/svg"><style>.kst0{fill-rule:evenodd;clip-rule:evenodd}</style><path class="kst0" d="M95.8 66.7h-8.3c-2.3 0-4.2-1.9-4.2-4.2 0-2.3 1.9-4.2 4.2-4.2h8.3c2.3 0 4.2 1.9 4.2 4.2 0 2.3-1.9 4.2-4.2 4.2zM79.5 38.9c-1.6 1.6-4.3 1.6-5.9 0-1.6-1.6-1.6-4.3 0-5.9l5.9-5.9c1.6-1.6 4.3-1.6 5.9 0 1.6 1.6 1.6 4.3 0 5.9l-5.9 5.9zm-6 31.9h-9.1c1.4-2.5 2.2-5.3 2.2-8.3 0-9.2-7.5-16.7-16.7-16.7s-16.7 7.5-16.7 16.7c0 3 .8 5.9 2.2 8.3h-9.1c-.9-2.6-1.5-5.4-1.5-8.3 0-13.8 11.2-25 25-25s25 11.2 25 25c.2 2.9-.3 5.7-1.3 8.3zM50 29.2c-2.3 0-4.2-1.9-4.2-4.2v-8.3c0-2.3 1.9-4.2 4.2-4.2s4.2 1.9 4.2 4.2V25c0 2.3-1.9 4.2-4.2 4.2zm-29.5 9.7L14.6 33c-1.6-1.6-1.6-4.3 0-5.9 1.6-1.6 4.3-1.6 5.9 0l5.9 5.9c1.6 1.6 1.6 4.3 0 5.9-1.6 1.7-4.2 1.7-5.9 0zm-3.8 23.6c0 2.3-1.9 4.2-4.2 4.2H4.2c-2.3 0-4.2-1.9-4.2-4.2 0-2.3 1.9-4.2 4.2-4.2h8.3c2.3 0 4.2 1.9 4.2 4.2zm12.5 16.7h41.7c2.3 0 4.2 1.9 4.2 4.2 0 2.3-1.9 4.2-4.2 4.2H29.2c-2.3 0-4.2-1.9-4.2-4.2 0-2.4 1.9-4.2 4.2-4.2z"/></symbol><symbol id="icon-Thermometer-Zero" viewBox="0 0 100 100" xml:space="preserve" xmlns="http://www.w3.org/2000/svg"><style>.lst0{fill-rule:evenodd;clip-rule:evenodd}</style><path class="lst0" d="M50 100c-12.3 0-22.2-9.9-22.2-22.2 0-5.6 2.1-10.7 5.6-14.7V16.7C33.3 7.5 40.8 0 50 0c9.2 0 16.7 7.5 16.7 16.7v46.4c3.4 3.9 5.6 9 5.6 14.7-.1 12.3-10 22.2-22.3 22.2zm5.6-31.8V16.7c0-3.1-2.5-5.6-5.6-5.6s-5.6 2.5-5.6 5.6v51.5c-3.3 1.9-5.6 5.5-5.6 9.6 0 6.1 5 11.1 11.1 11.1S61 83.9 61 77.8c.1-4.1-2.1-7.7-5.4-9.6zM50 86.1c-4.6 0-8.3-3.7-8.3-8.3 0-4.6 3.7-8.3 8.3-8.3 4.6 0 8.3 3.7 8.3 8.3 0 4.6-3.7 8.3-8.3 8.3z"/></symbol><symbol id="icon-Tornado" viewBox="0 0 100 100" xml:space="preserve" xmlns="http://www.w3.org/2000/svg"><style>.mst0{fill-rule:evenodd;clip-rule:evenodd}</style><path class="mst0" d="M94.8 17.4H5c-2.6 0-4.7-2.1-4.7-4.7C.2 10 2.4 7.9 5 7.9h89.8c2.6 0 4.7 2.1 4.7 4.7s-2.1 4.8-4.7 4.8zM9.7 26.8h70.9c2.6 0 4.7 2.1 4.7 4.7s-2.1 4.7-4.7 4.7H9.7c-2.6 0-4.7-2.1-4.7-4.7s2.1-4.7 4.7-4.7zm28.4 18.9h52c2.6 0 4.7 2.1 4.7 4.7s-2.1 4.7-4.7 4.7h-52c-2.6 0-4.7-2.1-4.7-4.7-.1-2.6 2-4.7 4.7-4.7zm4.7 37.8H57c2.6 0 4.7 2.1 4.7 4.7s-2.1 4.7-4.7 4.7H42.8c-2.6 0-4.7-2.1-4.7-4.7 0-2.5 2.1-4.7 4.7-4.7zm2.3-14.1c0-2.6 2.1-4.7 4.7-4.7H83c2.6 0 4.7 2.1 4.7 4.7s-2.1 4.7-4.7 4.7H49.9c-2.6 0-4.8-2.1-4.8-4.7z"/></symbol><symbol id="icon-Wind" viewBox="0 0 100 100" xml:space="preserve" xmlns="http://www.w3.org/2000/svg"><style>.nst0{fill-rule:evenodd;clip-rule:evenodd}</style><path class="nst0" d="M86.4 54.5h-6.8c-2.5 0-4.5-2-4.5-4.5s2-4.5 4.5-4.5h6.8c2.5 0 4.5-2 4.5-4.5s-2-4.5-4.5-4.5-4.5-2-4.5-4.5 2-4.5 4.5-4.5c.3 0 .6 0 .9.1 7.1.5 12.7 6.3 12.7 13.5 0 7.3-6.1 13.4-13.6 13.4zm-22.8-9h-50c-2.5 0-4.5 2-4.5 4.5s2 4.5 4.5 4.5h50c7.5 0 13.6 6.1 13.6 13.6 0 7.2-5.6 13.1-12.7 13.5-.3.1-.6.1-.9.1-2.5 0-4.5-2-4.5-4.5s2-4.5 4.5-4.5 4.5-2 4.5-4.5-2-4.5-4.5-4.5H13.7C6.1 63.6 0 57.5 0 50c0-7.2 5.6-13.1 12.7-13.5.3-.1.6-.1.9-.1h49.9c2.5 0 4.5-2 4.5-4.5s-2-4.5-4.5-4.5-4.5-2-4.5-4.5 2-4.5 4.5-4.5c.3 0 .6 0 .9.1 7.1.5 12.7 6.3 12.7 13.5.2 7.3-5.9 13.5-13.5 13.5z"/></symbol></svg>